<mxfile host="app.diagrams.net" modified="2024-02-22T23:04:25.088Z" agent="Mozilla/5.0 (Windows NT 10.0; Win64; x64) AppleWebKit/537.36 (KHTML, like Gecko) Chrome/121.0.0.0 Safari/537.36" etag="yXuR_PkOeTq2lHaNe8mq" version="23.1.6" type="device">
  <diagram name="Page-1" id="Mjv3tSkoethtoWwlLNUa">
    <mxGraphModel dx="2344" dy="1234" grid="0" gridSize="10" guides="1" tooltips="1" connect="1" arrows="1" fold="1" page="1" pageScale="1" pageWidth="1700" pageHeight="1100" math="0" shadow="0">
      <root>
        <mxCell id="0" />
        <mxCell id="1" parent="0" />
        <mxCell id="1XwujUPYEwEKhXTdQUbc-1" value="" style="whiteSpace=wrap;html=1;aspect=fixed;fillColor=#f5f5f5;strokeColor=#666666;fontColor=#333333;" parent="1" vertex="1">
          <mxGeometry x="590" y="210" width="260" height="260" as="geometry" />
        </mxCell>
        <mxCell id="1XwujUPYEwEKhXTdQUbc-2" value="" style="verticalLabelPosition=bottom;verticalAlign=top;html=1;shadow=0;dashed=0;strokeWidth=1;shape=mxgraph.android.phone2;strokeColor=#6c8ebf;fillColor=#dae8fc;" parent="1" vertex="1">
          <mxGeometry x="290" y="130" width="250" height="530" as="geometry" />
        </mxCell>
        <mxCell id="1XwujUPYEwEKhXTdQUbc-3" value="" style="rounded=0;whiteSpace=wrap;html=1;" parent="1" vertex="1">
          <mxGeometry x="320" y="230" width="190" height="361" as="geometry" />
        </mxCell>
        <mxCell id="1XwujUPYEwEKhXTdQUbc-7" value="" style="verticalLabelPosition=bottom;verticalAlign=top;html=1;shadow=0;dashed=0;strokeWidth=1;shape=mxgraph.android.contact_badge_focused;sketch=0;" parent="1" vertex="1">
          <mxGeometry x="335" y="270" width="30" height="30" as="geometry" />
        </mxCell>
        <mxCell id="1XwujUPYEwEKhXTdQUbc-9" value="&lt;b&gt;Is it you trying to sign in?&lt;/b&gt;&lt;div&gt;&lt;br&gt;&lt;/div&gt;" style="text;html=1;align=center;verticalAlign=middle;whiteSpace=wrap;rounded=0;" parent="1" vertex="1">
          <mxGeometry x="335" y="240" width="160" height="30" as="geometry" />
        </mxCell>
        <mxCell id="1XwujUPYEwEKhXTdQUbc-14" value="user@gmail.com" style="text;html=1;align=center;verticalAlign=middle;whiteSpace=wrap;rounded=0;" parent="1" vertex="1">
          <mxGeometry x="374" y="275" width="105" height="20" as="geometry" />
        </mxCell>
        <mxCell id="1XwujUPYEwEKhXTdQUbc-15" value="&lt;b&gt;Device&lt;/b&gt;" style="text;html=1;align=center;verticalAlign=middle;whiteSpace=wrap;rounded=0;" parent="1" vertex="1">
          <mxGeometry x="325" y="320" width="60" height="30" as="geometry" />
        </mxCell>
        <mxCell id="1XwujUPYEwEKhXTdQUbc-16" value="Linux x86_64" style="text;html=1;align=center;verticalAlign=middle;whiteSpace=wrap;rounded=0;" parent="1" vertex="1">
          <mxGeometry x="335" y="335" width="95" height="30" as="geometry" />
        </mxCell>
        <mxCell id="1XwujUPYEwEKhXTdQUbc-17" value="&lt;b&gt;Near&lt;/b&gt;" style="text;html=1;align=center;verticalAlign=middle;whiteSpace=wrap;rounded=0;" parent="1" vertex="1">
          <mxGeometry x="320" y="365" width="60" height="30" as="geometry" />
        </mxCell>
        <mxCell id="1XwujUPYEwEKhXTdQUbc-18" value="Romania" style="text;html=1;align=center;verticalAlign=middle;whiteSpace=wrap;rounded=0;" parent="1" vertex="1">
          <mxGeometry x="335" y="380" width="60" height="30" as="geometry" />
        </mxCell>
        <mxCell id="1XwujUPYEwEKhXTdQUbc-19" value="&lt;b&gt;Time&lt;/b&gt;" style="text;html=1;align=center;verticalAlign=middle;whiteSpace=wrap;rounded=0;" parent="1" vertex="1">
          <mxGeometry x="320" y="410" width="60" height="30" as="geometry" />
        </mxCell>
        <mxCell id="1XwujUPYEwEKhXTdQUbc-20" value="Just now" style="text;html=1;align=center;verticalAlign=middle;whiteSpace=wrap;rounded=0;" parent="1" vertex="1">
          <mxGeometry x="340" y="430" width="60" height="30" as="geometry" />
        </mxCell>
        <mxCell id="1XwujUPYEwEKhXTdQUbc-21" value="&lt;b&gt;Accept&lt;/b&gt;" style="rounded=1;whiteSpace=wrap;html=1;fillColor=#fff2cc;strokeColor=#d6b656;" parent="1" vertex="1">
          <mxGeometry x="327.5" y="545" width="75" height="30" as="geometry" />
        </mxCell>
        <mxCell id="1XwujUPYEwEKhXTdQUbc-22" value="&lt;b&gt;Decline&lt;/b&gt;" style="rounded=1;whiteSpace=wrap;html=1;fillColor=#fff2cc;strokeColor=#d6b656;" parent="1" vertex="1">
          <mxGeometry x="430" y="545" width="75" height="30" as="geometry" />
        </mxCell>
        <mxCell id="1XwujUPYEwEKhXTdQUbc-23" value="&lt;b&gt;&lt;font style=&quot;font-size: 17px;&quot;&gt;Approve sign in&lt;/font&gt;&lt;/b&gt;" style="text;html=1;align=center;verticalAlign=middle;whiteSpace=wrap;rounded=0;" parent="1" vertex="1">
          <mxGeometry x="650" y="230" width="140" height="30" as="geometry" />
        </mxCell>
        <mxCell id="1XwujUPYEwEKhXTdQUbc-24" value="&lt;font style=&quot;font-size: 14px;&quot;&gt;Enter the following code into your mobile device.&lt;/font&gt;" style="text;html=1;align=center;verticalAlign=middle;whiteSpace=wrap;rounded=0;" parent="1" vertex="1">
          <mxGeometry x="590" y="300" width="260" height="30" as="geometry" />
        </mxCell>
        <mxCell id="1XwujUPYEwEKhXTdQUbc-26" value="&lt;span style=&quot;font-size: 29px;&quot;&gt;&lt;b&gt;19&lt;/b&gt;&lt;/span&gt;" style="rounded=1;whiteSpace=wrap;html=1;" parent="1" vertex="1">
          <mxGeometry x="650" y="380" width="140" height="50" as="geometry" />
        </mxCell>
        <mxCell id="1XwujUPYEwEKhXTdQUbc-27" value="" style="rounded=1;whiteSpace=wrap;html=1;fillColor=#f5f5f5;fontColor=#333333;strokeColor=#666666;" parent="1" vertex="1">
          <mxGeometry x="374" y="466" width="42.5" height="48" as="geometry" />
        </mxCell>
        <mxCell id="1XwujUPYEwEKhXTdQUbc-28" value="" style="rounded=1;whiteSpace=wrap;html=1;fillColor=#f5f5f5;fontColor=#333333;strokeColor=#666666;" parent="1" vertex="1">
          <mxGeometry x="421" y="466" width="42.5" height="48" as="geometry" />
        </mxCell>
      </root>
    </mxGraphModel>
  </diagram>
</mxfile>
